<svg xmlns="http://www.w3.org/2000/svg" width="705.6" height="179.2" viewBox="0 0 705.6 179.2" role="img" aria-label="Activate, device-limit, terminal, dark theme">
<rect width="705.6" height="179.2" rx="12" fill="#101114" stroke="#26282e"/>
<g font-family="JetBrains Mono, ui-monospace, monospace" font-size="14" xml:space="preserve">
<rect x="42" y="14" width="151.2" height="16.8" fill="#26847a"/>
<rect x="20.5" y="22.4" width="1" height="8.4" fill="#7f848e"/>
<rect x="20.5" y="21.9" width="4.7" height="1" fill="#7f848e"/>
<text x="50.4" y="26.6" textLength="134.4" lengthAdjust="spacingAndGlyphs" fill="#ffffff" font-weight="600">Tidewater Studio</text>
<text x="201.6" y="26.6" textLength="84" lengthAdjust="spacingAndGlyphs" fill="#7f848e">· activate</text>
<rect x="20.5" y="30.8" width="1" height="16.8" fill="#7f848e"/>
<text x="21" y="60.2" text-anchor="middle" fill="#5fd38d">◇</text>
<text x="42" y="60.2" textLength="92.4" lengthAdjust="spacingAndGlyphs" fill="#d7dae0">License key</text>
<text x="142.8" y="60.2" textLength="142.8" lengthAdjust="spacingAndGlyphs" fill="#7f848e">· pkey_tidewater_</text>
<text x="289.8" y="60.2" text-anchor="middle" fill="#7f848e">…</text>
<text x="294" y="60.2" textLength="50.4" lengthAdjust="spacingAndGlyphs" fill="#7f848e">3WPLDA</text>
<rect x="20.5" y="64.4" width="1" height="16.8" fill="#7f848e"/>
<text x="21" y="93.8" text-anchor="middle" fill="#e5c07b">▲</text>
<text x="42" y="93.8" textLength="168" lengthAdjust="spacingAndGlyphs" fill="#d7dae0" font-weight="600">Device limit reached</text>
<rect x="20.5" y="98" width="1" height="16.8" fill="#7f848e"/>
<text x="42" y="110.6" textLength="638.4" lengthAdjust="spacingAndGlyphs" fill="#d7dae0">This license is already on all its devices. Replace a device to use it here.</text>
<rect x="20.5" y="114.8" width="1" height="16.8" fill="#7f848e"/>
<rect x="20.5" y="131.6" width="1" height="16.8" fill="#7f848e"/>
<text x="42" y="144.2" textLength="151.2" lengthAdjust="spacingAndGlyphs" fill="#d7dae0" font-weight="600">tidewater activate</text>
<text x="218.4" y="144.2" textLength="75.6" lengthAdjust="spacingAndGlyphs" fill="#7f848e">Try again</text>
<rect x="20.5" y="148.4" width="1" height="8.4" fill="#7f848e"/>
<rect x="20.5" y="156.3" width="4.7" height="1" fill="#7f848e"/>
</g></svg>
