<svg xmlns="http://www.w3.org/2000/svg" width="705.6" height="145.6" viewBox="0 0 705.6 145.6" role="img" aria-label="Activate, device-limit, terminal, light theme">
<rect width="705.6" height="145.6" rx="12" fill="#fbfbfc" stroke="#dcdee3"/>
<g font-family="JetBrains Mono, ui-monospace, monospace" font-size="14" xml:space="preserve">
<rect x="42" y="14" width="151.2" height="16.8" fill="#26847a"/>
<rect x="20.5" y="22.4" width="1" height="8.4" fill="#24292f"/>
<rect x="20.5" y="21.9" width="4.7" height="1" fill="#24292f"/>
<text x="50.4" y="26.6" textLength="134.4" lengthAdjust="spacingAndGlyphs" fill="#ffffff" font-weight="600">Tidewater Studio</text>
<text x="201.6" y="26.6" textLength="84" lengthAdjust="spacingAndGlyphs" fill="#24292f">· activate</text>
<rect x="20.5" y="30.8" width="1" height="16.8" fill="#24292f"/>
<text x="21" y="60.2" text-anchor="middle" fill="#1a7f37">◇</text>
<text x="42" y="60.2" textLength="243.6" lengthAdjust="spacingAndGlyphs" fill="#24292f">License key · pkey_tidewater_</text>
<text x="289.8" y="60.2" text-anchor="middle" fill="#24292f">•</text>
<text x="298.2" y="60.2" text-anchor="middle" fill="#24292f">•</text>
<text x="306.6" y="60.2" text-anchor="middle" fill="#24292f">•</text>
<text x="315" y="60.2" text-anchor="middle" fill="#24292f">•</text>
<text x="323.4" y="60.2" text-anchor="middle" fill="#24292f">•</text>
<text x="331.8" y="60.2" text-anchor="middle" fill="#24292f">•</text>
<text x="21" y="77" text-anchor="middle" fill="#9a6700">▲</text>
<text x="42" y="77" textLength="168" lengthAdjust="spacingAndGlyphs" fill="#24292f" font-weight="600">Device limit reached</text>
<rect x="20.5" y="81.2" width="1" height="16.8" fill="#24292f"/>
<text x="42" y="93.8" textLength="638.4" lengthAdjust="spacingAndGlyphs" fill="#24292f">This license is already on all its devices. Replace a device to use it here.</text>
<rect x="20.5" y="98" width="1" height="16.8" fill="#24292f"/>
<rect x="20.5" y="114.8" width="1" height="8.4" fill="#24292f"/>
<rect x="20.5" y="122.7" width="4.7" height="1" fill="#24292f"/>
<text x="42" y="127.4" textLength="151.2" lengthAdjust="spacingAndGlyphs" fill="#24292f" font-weight="600">tidewater activate</text>
<text x="218.4" y="127.4" textLength="75.6" lengthAdjust="spacingAndGlyphs" fill="#24292f">Try again</text>
</g></svg>
