<svg xmlns="http://www.w3.org/2000/svg" width="705.6" height="162.4" viewBox="0 0 705.6 162.4" role="img" aria-label="StatusScreen, channel-not-entitled, terminal, light theme">
<rect width="705.6" height="162.4" rx="12" fill="#fbfbfc" stroke="#dcdee3"/>
<g font-family="JetBrains Mono, ui-monospace, monospace" font-size="14" xml:space="preserve">
<rect x="42" y="14" width="151.2" height="16.8" fill="#26847a"/>
<rect x="20.5" y="22.4" width="1" height="8.4" fill="#24292f"/>
<rect x="20.5" y="21.9" width="4.7" height="1" fill="#24292f"/>
<text x="50.4" y="26.6" textLength="134.4" lengthAdjust="spacingAndGlyphs" fill="#ffffff" font-weight="600">Tidewater Studio</text>
<text x="201.6" y="26.6" textLength="67.2" lengthAdjust="spacingAndGlyphs" fill="#24292f">· status</text>
<rect x="20.5" y="30.8" width="1" height="16.8" fill="#24292f"/>
<text x="21" y="60.2" text-anchor="middle" fill="#cf222e">✗</text>
<text x="42" y="60.2" textLength="168" lengthAdjust="spacingAndGlyphs" fill="#24292f" font-weight="600">Channel not included</text>
<rect x="20.5" y="64.4" width="1" height="16.8" fill="#24292f"/>
<text x="42" y="77" textLength="420" lengthAdjust="spacingAndGlyphs" fill="#24292f">Your license doesn&#x27;t include this release channel.</text>
<rect x="20.5" y="81.2" width="1" height="16.8" fill="#24292f"/>
<rect x="20.5" y="98" width="1" height="16.8" fill="#24292f"/>
<text x="42" y="110.6" textLength="260.4" lengthAdjust="spacingAndGlyphs" fill="#24292f">To keep using Tidewater Studio:</text>
<rect x="20.5" y="114.8" width="1" height="16.8" fill="#24292f"/>
<text x="42" y="127.4" textLength="277.2" lengthAdjust="spacingAndGlyphs" fill="#24292f" font-weight="600">tidewater update --channel &lt;name&gt;</text>
<text x="344.4" y="127.4" textLength="117.6" lengthAdjust="spacingAndGlyphs" fill="#24292f">Switch channel</text>
<rect x="20.5" y="131.6" width="1" height="8.4" fill="#24292f"/>
<rect x="20.5" y="139.5" width="4.7" height="1" fill="#24292f"/>
<text x="42" y="144.2" textLength="168" lengthAdjust="spacingAndGlyphs" fill="#24292f">Contact Harbor Audio</text>
</g></svg>
