<svg xmlns="http://www.w3.org/2000/svg" width="705.6" height="683.2" viewBox="0 0 705.6 683.2" role="img" aria-label="Fallbacks, light theme">
<rect width="705.6" height="683.2" rx="12" fill="#fbfbfc" stroke="#dcdee3"/>
<g font-family="JetBrains Mono, ui-monospace, monospace" font-size="14" xml:space="preserve">
<text x="16.8" y="26.6" textLength="117.6" lengthAdjust="spacingAndGlyphs" fill="#6e7781">truecolor · 80</text>
<rect x="42" y="30.8" width="151.2" height="16.8" fill="#26847a"/>
<rect x="20.5" y="39.2" width="1" height="8.4" fill="#24292f"/>
<rect x="20.5" y="38.7" width="4.7" height="1" fill="#24292f"/>
<text x="50.4" y="43.4" textLength="134.4" lengthAdjust="spacingAndGlyphs" fill="#ffffff" font-weight="600">Tidewater Studio</text>
<text x="201.6" y="43.4" textLength="84" lengthAdjust="spacingAndGlyphs" fill="#24292f">· activate</text>
<rect x="20.5" y="47.6" width="1" height="16.8" fill="#24292f"/>
<text x="21" y="77" text-anchor="middle" fill="#1a7f37">◇</text>
<text x="42" y="77" textLength="243.6" lengthAdjust="spacingAndGlyphs" fill="#24292f">License key · pkey_tidewater_</text>
<text x="289.8" y="77" text-anchor="middle" fill="#24292f">•</text>
<text x="298.2" y="77" text-anchor="middle" fill="#24292f">•</text>
<text x="306.6" y="77" text-anchor="middle" fill="#24292f">•</text>
<text x="315" y="77" text-anchor="middle" fill="#24292f">•</text>
<text x="323.4" y="77" text-anchor="middle" fill="#24292f">•</text>
<text x="331.8" y="77" text-anchor="middle" fill="#24292f">•</text>
<text x="21" y="93.8" text-anchor="middle" fill="#9a6700">▲</text>
<text x="42" y="93.8" textLength="277.2" lengthAdjust="spacingAndGlyphs" fill="#24292f" font-weight="600">Your license is on 3 of 3 devices</text>
<rect x="20.5" y="98" width="1" height="16.8" fill="#24292f"/>
<text x="46.2" y="110.6" text-anchor="middle" fill="#24292f" font-weight="600">●</text>
<text x="54.6" y="110.6" text-anchor="middle" fill="#24292f" font-weight="600">●</text>
<text x="63" y="110.6" text-anchor="middle" fill="#24292f" font-weight="600">●</text>
<rect x="20.5" y="114.8" width="1" height="16.8" fill="#24292f"/>
<text x="42" y="127.4" textLength="453.6" lengthAdjust="spacingAndGlyphs" fill="#24292f">Replace a device in your browser, then try again here.</text>
<rect x="20.5" y="131.6" width="1" height="16.8" fill="#24292f"/>
<text x="42" y="144.2" textLength="302.4" lengthAdjust="spacingAndGlyphs" fill="#24292f" text-decoration="underline">key.plrs.im/portal/tidewater/devices</text>
<rect x="20.5" y="148.4" width="1" height="8.4" fill="#24292f"/>
<rect x="20.5" y="156.3" width="4.7" height="1" fill="#24292f"/>
<text x="42" y="161" textLength="42" lengthAdjust="spacingAndGlyphs" fill="#24292f" font-weight="600">Enter</text>
<text x="92.4" y="161" textLength="142.8" lengthAdjust="spacingAndGlyphs" fill="#24292f">open in browser ·</text>
<text x="243.6" y="161" textLength="25.2" lengthAdjust="spacingAndGlyphs" fill="#24292f" font-weight="600">Esc</text>
<text x="277.2" y="161" textLength="50.4" lengthAdjust="spacingAndGlyphs" fill="#24292f">cancel</text>
<text x="16.8" y="194.6" textLength="92.4" lengthAdjust="spacingAndGlyphs" fill="#6e7781">ansi16 · 80</text>
<rect x="42" y="198.8" width="151.2" height="16.8" fill="#1b7c83"/>
<rect x="20.5" y="207.2" width="1" height="8.4" fill="#24292f"/>
<rect x="20.5" y="206.7" width="4.7" height="1" fill="#24292f"/>
<text x="50.4" y="211.4" textLength="134.4" lengthAdjust="spacingAndGlyphs" fill="#fbfbfc" font-weight="600">Tidewater Studio</text>
<text x="201.6" y="211.4" textLength="84" lengthAdjust="spacingAndGlyphs" fill="#24292f">· activate</text>
<rect x="20.5" y="215.6" width="1" height="16.8" fill="#24292f"/>
<text x="21" y="245" text-anchor="middle" fill="#1a7f37">◇</text>
<text x="42" y="245" textLength="243.6" lengthAdjust="spacingAndGlyphs" fill="#24292f">License key · pkey_tidewater_</text>
<text x="289.8" y="245" text-anchor="middle" fill="#24292f">•</text>
<text x="298.2" y="245" text-anchor="middle" fill="#24292f">•</text>
<text x="306.6" y="245" text-anchor="middle" fill="#24292f">•</text>
<text x="315" y="245" text-anchor="middle" fill="#24292f">•</text>
<text x="323.4" y="245" text-anchor="middle" fill="#24292f">•</text>
<text x="331.8" y="245" text-anchor="middle" fill="#24292f">•</text>
<text x="21" y="261.8" text-anchor="middle" fill="#9a6700">▲</text>
<text x="42" y="261.8" textLength="277.2" lengthAdjust="spacingAndGlyphs" fill="#24292f" font-weight="600">Your license is on 3 of 3 devices</text>
<rect x="20.5" y="266" width="1" height="16.8" fill="#24292f"/>
<text x="46.2" y="278.6" text-anchor="middle" fill="#24292f" font-weight="600">●</text>
<text x="54.6" y="278.6" text-anchor="middle" fill="#24292f" font-weight="600">●</text>
<text x="63" y="278.6" text-anchor="middle" fill="#24292f" font-weight="600">●</text>
<rect x="20.5" y="282.8" width="1" height="16.8" fill="#24292f"/>
<text x="42" y="295.4" textLength="453.6" lengthAdjust="spacingAndGlyphs" fill="#24292f">Replace a device in your browser, then try again here.</text>
<rect x="20.5" y="299.6" width="1" height="16.8" fill="#24292f"/>
<text x="42" y="312.2" textLength="302.4" lengthAdjust="spacingAndGlyphs" fill="#24292f" text-decoration="underline">key.plrs.im/portal/tidewater/devices</text>
<rect x="20.5" y="316.4" width="1" height="8.4" fill="#24292f"/>
<rect x="20.5" y="324.3" width="4.7" height="1" fill="#24292f"/>
<text x="42" y="329" textLength="42" lengthAdjust="spacingAndGlyphs" fill="#24292f" font-weight="600">Enter</text>
<text x="92.4" y="329" textLength="142.8" lengthAdjust="spacingAndGlyphs" fill="#24292f">open in browser ·</text>
<text x="243.6" y="329" textLength="25.2" lengthAdjust="spacingAndGlyphs" fill="#24292f" font-weight="600">Esc</text>
<text x="277.2" y="329" textLength="50.4" lengthAdjust="spacingAndGlyphs" fill="#24292f">cancel</text>
<text x="16.8" y="362.6" textLength="109.2" lengthAdjust="spacingAndGlyphs" fill="#6e7781">no-color · 80</text>
<rect x="42" y="366.8" width="151.2" height="16.8" fill="#24292f"/>
<rect x="20.5" y="375.2" width="1" height="8.4" fill="#24292f"/>
<rect x="20.5" y="374.7" width="4.7" height="1" fill="#24292f"/>
<text x="50.4" y="379.4" textLength="134.4" lengthAdjust="spacingAndGlyphs" fill="#fbfbfc">Tidewater Studio</text>
<text x="201.6" y="379.4" textLength="84" lengthAdjust="spacingAndGlyphs" fill="#24292f">· activate</text>
<rect x="20.5" y="383.6" width="1" height="16.8" fill="#24292f"/>
<text x="21" y="413" text-anchor="middle" fill="#24292f">◇</text>
<text x="42" y="413" textLength="243.6" lengthAdjust="spacingAndGlyphs" fill="#24292f">License key · pkey_tidewater_</text>
<text x="289.8" y="413" text-anchor="middle" fill="#24292f">•</text>
<text x="298.2" y="413" text-anchor="middle" fill="#24292f">•</text>
<text x="306.6" y="413" text-anchor="middle" fill="#24292f">•</text>
<text x="315" y="413" text-anchor="middle" fill="#24292f">•</text>
<text x="323.4" y="413" text-anchor="middle" fill="#24292f">•</text>
<text x="331.8" y="413" text-anchor="middle" fill="#24292f">•</text>
<text x="21" y="429.8" text-anchor="middle" fill="#24292f">▲</text>
<text x="42" y="429.8" textLength="277.2" lengthAdjust="spacingAndGlyphs" fill="#24292f" font-weight="600">Your license is on 3 of 3 devices</text>
<rect x="20.5" y="434" width="1" height="16.8" fill="#24292f"/>
<text x="46.2" y="446.6" text-anchor="middle" fill="#24292f" font-weight="600">●</text>
<text x="54.6" y="446.6" text-anchor="middle" fill="#24292f" font-weight="600">●</text>
<text x="63" y="446.6" text-anchor="middle" fill="#24292f" font-weight="600">●</text>
<rect x="20.5" y="450.8" width="1" height="16.8" fill="#24292f"/>
<text x="42" y="463.4" textLength="453.6" lengthAdjust="spacingAndGlyphs" fill="#24292f">Replace a device in your browser, then try again here.</text>
<rect x="20.5" y="467.6" width="1" height="16.8" fill="#24292f"/>
<text x="42" y="480.2" textLength="302.4" lengthAdjust="spacingAndGlyphs" fill="#24292f">key.plrs.im/portal/tidewater/devices</text>
<rect x="20.5" y="484.4" width="1" height="8.4" fill="#24292f"/>
<rect x="20.5" y="492.3" width="4.7" height="1" fill="#24292f"/>
<text x="42" y="497" textLength="42" lengthAdjust="spacingAndGlyphs" fill="#24292f" font-weight="600">Enter</text>
<text x="92.4" y="497" textLength="142.8" lengthAdjust="spacingAndGlyphs" fill="#24292f">open in browser ·</text>
<text x="243.6" y="497" textLength="25.2" lengthAdjust="spacingAndGlyphs" fill="#24292f" font-weight="600">Esc</text>
<text x="277.2" y="497" textLength="50.4" lengthAdjust="spacingAndGlyphs" fill="#24292f">cancel</text>
<text x="16.8" y="530.6" textLength="84" lengthAdjust="spacingAndGlyphs" fill="#6e7781">ascii · 80</text>
<rect x="42" y="534.8" width="151.2" height="16.8" fill="#1b7c83"/>
<text x="16.8" y="547.4" textLength="8.4" lengthAdjust="spacingAndGlyphs" fill="#24292f">+</text>
<text x="50.4" y="547.4" textLength="134.4" lengthAdjust="spacingAndGlyphs" fill="#fbfbfc" font-weight="600">Tidewater Studio</text>
<text x="201.6" y="547.4" textLength="84" lengthAdjust="spacingAndGlyphs" fill="#24292f">- activate</text>
<text x="16.8" y="564.2" textLength="8.4" lengthAdjust="spacingAndGlyphs" fill="#24292f">|</text>
<text x="16.8" y="581" textLength="8.4" lengthAdjust="spacingAndGlyphs" fill="#1a7f37">o</text>
<text x="42" y="581" textLength="294" lengthAdjust="spacingAndGlyphs" fill="#24292f">License key - pkey_tidewater_******</text>
<text x="16.8" y="597.8" textLength="8.4" lengthAdjust="spacingAndGlyphs" fill="#9a6700">!</text>
<text x="42" y="597.8" textLength="277.2" lengthAdjust="spacingAndGlyphs" fill="#24292f" font-weight="600">Your license is on 3 of 3 devices</text>
<text x="16.8" y="614.6" textLength="8.4" lengthAdjust="spacingAndGlyphs" fill="#24292f">|</text>
<text x="42" y="614.6" textLength="25.2" lengthAdjust="spacingAndGlyphs" fill="#24292f" font-weight="600">###</text>
<text x="16.8" y="631.4" textLength="478.8" lengthAdjust="spacingAndGlyphs" fill="#24292f">|  Replace a device in your browser, then try again here.</text>
<text x="16.8" y="648.2" textLength="8.4" lengthAdjust="spacingAndGlyphs" fill="#24292f">|</text>
<text x="42" y="648.2" textLength="302.4" lengthAdjust="spacingAndGlyphs" fill="#24292f" text-decoration="underline">key.plrs.im/portal/tidewater/devices</text>
<text x="16.8" y="665" textLength="8.4" lengthAdjust="spacingAndGlyphs" fill="#24292f">`</text>
<text x="42" y="665" textLength="42" lengthAdjust="spacingAndGlyphs" fill="#24292f" font-weight="600">Enter</text>
<text x="92.4" y="665" textLength="142.8" lengthAdjust="spacingAndGlyphs" fill="#24292f">open in browser -</text>
<text x="243.6" y="665" textLength="25.2" lengthAdjust="spacingAndGlyphs" fill="#24292f" font-weight="600">Esc</text>
<text x="277.2" y="665" textLength="50.4" lengthAdjust="spacingAndGlyphs" fill="#24292f">cancel</text>
</g></svg>
